# xmcd CD database file
#
# Track frame offsets:
#	183
#	17568
#	40788
#	65990
#	81190
#	98195
#	123945
#	137133
#	154020
#	174705
#	198798
#	218828
#	235530
#	263558
#
# Disc length: 3670 seconds
#
# Revision: 0
# Processed by: cddbd v1.5.1PL0 Copyright (c) Steve Scherf et al.
# Submitted via: CDex 1.51
#
DISCID=b70e540e
DTITLE=Monica Passos - Casamento
DYEAR=1993
DGENRE=Salsa
TTITLE0=Fora !
TTITLE1=A Felicitade
TTITLE2=Encontros  E Despedidas
TTITLE3=Alguem Cantando
TTITLE4=Babel
TTITLE5=O Violao Do Meu Pai
TTITLE6=Le Chef Revient Dans 5 Minutes
TTITLE7=Valsa De Natal
TTITLE8=Après Un Reve
TTITLE9=Doidia
TTITLE10=O Sonho De Demetria
TTITLE11=Ca Y Est
TTITLE12=Casamento
TTITLE13=So Long
EXTD=YEAR: 1993
EXTT0=
EXTT1=
EXTT2=
EXTT3=
EXTT4=
EXTT5=
EXTT6=
EXTT7=
EXTT8=
EXTT9=
EXTT10=
EXTT11=
EXTT12=
EXTT13=
PLAYORDER=
